<svg version="1" xmlns="http://www.w3.org/2000/svg" width="933.333" height="933.333" viewBox="0 0 700.000000 700.000000"><path d="M243.7 33.1c-10.5 2.5-21.9 11.7-26.3 21.3-3.6 7.9-4.4 14.6-4.4 36.8V111l-81.2.2-81.3.3-6.5 3.1c-7.1 3.4-13.7 9.4-17.5 15.8-5.6 9.5-5.5 8.5-5.5 105.1v89l109.8 42.8c60.4 23.5 110.7 43 111.8 43.3 1.6.4 2.4-.8 5.2-8.3 6.7-18.2 22.7-33.3 41.1-38.9 10.7-3.2 29.2-.7 41.2 5.8 3.3 1.7 9.1 6 12.8 9.4l6.8 6.3 3.9-4c7.8-8.1 21.2-15.5 32.9-17.9 2.7-.6 8.8-1.1 13.5-1.1 13.3-.1 25.1 4.9 36.6 15.3 8.3 7.7 12.7 15 15.4 25.8 1.2 5 2.6 9 3 8.8.5-.2 51.1-19.9 112.4-43.8L679 324.5v-89c0-96.6.1-95.6-5.5-105.1-3.8-6.4-10.4-12.4-17.5-15.8l-6.5-3.1-81.2-.3-81.3-.2V91.2c0-10.8-.4-22.3-1-25.5-2.1-13.3-10.4-24.2-22.8-30l-6.7-3.2-104.5-.2c-58.8-.1-106.1.3-108.3.8zm212 20.3c3.6 1.7 6 3.8 8 6.7l2.8 4.2.5 32.6.5 32.6 89 .5c81.3.5 89.3.6 92.1 2.2 4 2.2 9.2 8.1 10.1 11.6.5 1.5.8 39.8.8 85.1v82.5L564 348.7c-52.5 20.5-95.8 37.3-96.2 37.3-.3 0-2.1-2.6-3.9-5.8-1.8-3.1-7.3-9.7-12.3-14.7-10.2-10.1-19.2-15.7-32.1-20.1-6.9-2.3-9.6-2.7-19.5-2.7-16.7.1-28.4 3.2-43.1 11.6l-7.6 4.3-3.4-2.4c-16.2-11.5-44.7-16.6-62.5-11.1-19.1 5.9-38.4 21.1-48 37.6-1 1.8-2.3 3.3-2.9 3.3-.5 0-44-16.8-96.5-37.3l-95.5-37.3V229c0-45.4.3-83.7.8-85.2.9-3.5 6.1-9.4 10.1-11.6 2.8-1.6 10.8-1.7 92.1-2.2l89-.5.5-32.6.5-32.6 2.8-4.2c2-2.9 4.4-5 8-6.7l5.2-2.4h201l5.2 2.4z"/><path d="M254.6 72.1l-2.6 3.1V129h196V75.2l-2.6-3.1-2.6-3.1H257.2l-2.6 3.1zM22 493.9v151.9l3.3 6.3c3.6 7.1 10.4 13.1 17.2 15.2 5.9 1.8 609.1 1.8 615 0 6.8-2.1 13.6-8.1 17.2-15.2l3.3-6.3v-152c0-144.3-.1-152-1.7-151.5-2.3.6-218.7 84.8-219.2 85.3-.2.2-.7 4.2-1.2 8.9-2.6 25.1-17.2 45.7-49.9 70.2-19.5 14.6-31.9 25.2-45.2 38.3L349 556.6l-2.7-4c-5.4-8.3-21.2-22-49.3-43.1-36.4-27.3-47.8-42.8-51.5-70.4-.8-5.7-1.8-10.7-2.2-11.2-.7-.7-219.7-85.9-220.8-85.9-.3 0-.5 68.4-.5 151.9z"/><path d="M298.1 376c-12.3 1.9-26.6 12.3-33.7 24.3-5.6 9.5-6.8 15.2-6.1 29.7 1.3 29.1 11.3 43.5 51.2 74 21.4 16.3 33.9 27.7 38.5 34.9l1.6 2.3 2.7-3.6c4.4-5.7 22.7-21.7 41.7-36.5 36.7-28.4 46.6-42.9 47.7-69.1.8-18.9-2.4-29.8-11.9-40.4-9.5-10.7-22-16-36.8-15.9-18.2.3-32.3 9.1-40.5 25.3l-2.8 5.4-1.5-3.9c-3.6-9.5-14.2-20-24.5-24.4-5.5-2.4-17.6-3.4-25.6-2.1z"/></svg>