<svg id="Layer_1" data-name="Layer 1" xmlns="http://www.w3.org/2000/svg" viewBox="0 0 2208 2208"><defs><style>.cls-1{fill:#f8bbd0;}.cls-2{fill:#ff4081;}.cls-3{fill:#fff;stroke:#607d8b;stroke-miterlimit:10;stroke-width:60px;}.cls-4{fill:#546e7a;}.cls-5{fill:#607d8b;}</style></defs><title>logo</title><rect id="Background" class="cls-1" width="2208" height="2208" rx="100"/><g id="Heart"><g id="layer1"><path id="path2417" class="cls-2" d="M1081.16,1676.9c-12.49-14-43.66-41.26-69.27-60.6-75.9-57.32-86.23-65.61-117-94C838,1470,813.92,1417.45,814,1346.19c0-34.78,2.41-48.18,12.15-68.69,16.53-34.78,40.88-60.63,72-76.44,22.05-11.2,32.92-16.18,69.73-16.38,38.51-.21,46.62,4.28,69.27,16.72,27.57,15.15,55.95,47.52,61.82,70.52l3.62,14.2,8.94-19.56c50.49-110.54,211.7-108.88,267.8,2.75,17.79,35.41,19.75,111,4,153.62-20.59,55.56-59.26,97.92-148.64,162.83-58.61,42.57-125,107-129.57,116C1099.73,1712.29,1104.83,1703.43,1081.16,1676.9Z"/></g></g><path id="Lid" class="cls-3" d="M945.56,1110.16C1050,1110,1102,1172,1102,1172s57-63,163.25-62.78c74.75.15,149.86,59.11,177,113.06,5,9.89,8.94,22.35,11.87,36.3l656.78-256.24V473.17c0-51.56-42.18-93.74-93.74-93.74H1504.31V225.16c0-51.57-42.18-93.75-93.75-93.75H797.44c-51.57,0-93.75,42.18-93.75,93.75V379.43H190.87c-51.56,0-93.74,42.18-93.74,93.74v529.17l655.76,255.84a145.29,145.29,0,0,1,9.79-25.84C783,1189.61,855.56,1110.29,945.56,1110.16Z"/><path id="Body" class="cls-4" d="M1441.5,1349.22c-1.43,25.25-4.25,54.22-11.25,73.12-25.29,68.26-55.94,108.94-165.74,188.68-72,52.3-153.5,131.42-159.17,142.54-6.59,12.9-.32,2-29.4-30.58-15.34-17.18-53.63-50.68-85.1-74.45-93.23-70.4-108.74-77.75-143.77-115.45-63.7-68.55-72.27-108.41-77.76-182.92L69,1078.28v936.57c0,51.56,42.18,93.74,93.74,93.74H2045.26c51.56,0,93.74-42.18,93.74-93.74V1077.64Z"/><path id="Handle" class="cls-5" d="M824.62,216h558.75a30,30,0,0,1,30,30V408a0,0,0,0,1,0,0H794.62a0,0,0,0,1,0,0V246A30,30,0,0,1,824.62,216Z"/></svg>